<svg xmlns="http://www.w3.org/2000/svg" width="600" height="800" viewBox="0 0 600 800"><rect width="600" height="800" fill="#fffefb"/><g stroke="#b7cdd5" stroke-width=".8" opacity=".72"><path d="M0 78H600"/><path d="M0 107H600"/><path d="M0 136H600"/><path d="M0 165H600"/><path d="M0 194H600"/><path d="M0 223H600"/><path d="M0 252H600"/><path d="M0 281H600"/><path d="M0 310H600"/><path d="M0 339H600"/><path d="M0 368H600"/><path d="M0 397H600"/><path d="M0 426H600"/><path d="M0 455H600"/><path d="M0 484H600"/><path d="M0 513H600"/><path d="M0 542H600"/><path d="M0 571H600"/><path d="M0 600H600"/><path d="M0 629H600"/><path d="M0 658H600"/><path d="M0 687H600"/><path d="M0 716H600"/><path d="M0 745H600"/><path d="M0 774H600"/></g><path d="M68 0V800" stroke="#dfabab" stroke-width="1" opacity=".7"/></svg>